<svg width="102" height="28" viewBox="0 0 102 28" fill="none" xmlns="http://www.w3.org/2000/svg">
<rect x="0.157715" width="101" height="28" rx="3.84" fill="url(#paint0_linear_19_45025)"/>
<path d="M7.62525 17.1399C7.67743 17.6514 7.92133 18.1255 8.30929 18.4694C8.69726 18.8134 9.20145 19.0026 9.7234 19H18.2209C18.7429 19.0026 19.2471 18.8134 19.635 18.4694C20.023 18.1255 20.2669 17.6514 20.3191 17.1399L20.41 16.2443H7.53433L7.62525 17.1399ZM20.7807 10.0439C20.6398 9.79386 20.4233 9.59318 20.1614 9.46973C19.8995 9.34629 19.6051 9.30619 19.319 9.355C19.0351 9.40457 18.7738 9.53931 18.5706 9.7408L17.9692 10.3264C17.9053 10.3908 17.8293 10.4423 17.7454 10.478C17.6608 10.5109 17.5705 10.5273 17.4796 10.5262C17.3871 10.5258 17.2955 10.5073 17.2103 10.4719C17.125 10.4364 17.0478 10.3846 16.983 10.3195L15.0387 8.3905C14.7776 8.14011 14.4275 8 14.0631 8C13.6986 8 13.3486 8.14011 13.0874 8.3905L10.9893 10.4022C10.9197 10.4648 10.838 10.513 10.7491 10.5438C10.6602 10.5746 10.5658 10.5873 10.4717 10.5813C10.2883 10.5805 10.1124 10.5088 9.98217 10.3815L9.35273 9.76147C9.15802 9.55609 8.90423 9.41426 8.62537 9.355C8.33713 9.30312 8.03963 9.3417 7.77486 9.46531C7.51008 9.58892 7.29139 9.79131 7.14966 10.0439C7.00799 10.2958 6.94703 10.584 6.97482 10.8706L7.39445 14.8664H20.5429L20.9625 10.8706C20.9886 10.5833 20.9252 10.2949 20.7807 10.0439Z" fill="#0D0E10"/>
<path d="M31.6457 9.326C32.3644 9.326 32.9757 9.466 33.4797 9.746C33.9837 10.0167 34.357 10.3853 34.5997 10.852C34.8517 11.3187 34.9777 11.8507 34.9777 12.448C34.9777 13.0547 34.8517 13.596 34.5997 14.072C34.3477 14.5387 33.9697 14.9073 33.4657 15.178C32.9617 15.4487 32.3457 15.584 31.6177 15.584H29.4057V19H27.2077V9.326H31.6457ZM31.0577 13.862C31.6737 13.862 32.1264 13.7547 32.4157 13.54C32.7144 13.316 32.8637 12.9567 32.8637 12.462C32.8637 11.986 32.719 11.636 32.4297 11.412C32.1497 11.1787 31.7017 11.062 31.0857 11.062H29.4057V13.862H31.0577ZM41.7819 9.326C42.3419 9.326 42.8366 9.44267 43.2659 9.676C43.7046 9.90933 44.0406 10.2313 44.2739 10.642C44.5166 11.0433 44.6379 11.496 44.6379 12C44.6379 12.42 44.5633 12.8073 44.4139 13.162C44.2739 13.5073 44.0779 13.7967 43.8259 14.03C43.5739 14.254 43.2893 14.4033 42.9719 14.478V14.506C43.3733 14.6087 43.6766 14.786 43.8819 15.038C44.0873 15.2807 44.2599 15.682 44.3999 16.242C44.5399 16.802 44.7079 17.7213 44.9039 19H42.7619C42.6406 18.1413 42.5333 17.4833 42.4399 17.026C42.3466 16.5687 42.2579 16.2513 42.1739 16.074C42.0899 15.8873 41.9966 15.738 41.8939 15.626C41.6419 15.3833 41.2873 15.262 40.8299 15.262H38.7299V19H36.5319V9.326H41.7819ZM41.0119 13.694C41.4693 13.694 41.8193 13.5913 42.0619 13.386C42.3139 13.1713 42.4399 12.826 42.4399 12.35C42.4399 11.8927 42.3186 11.5613 42.0759 11.356C41.8333 11.1507 41.4693 11.048 40.9839 11.048H38.7299V13.694H41.0119ZM53.8748 9.326V11.188H48.7788V13.176H53.4548V14.884H48.7788V17.138H53.9868V19H46.5808V9.326H53.8748ZM58.7802 9.326L60.9642 15.878H60.9922L63.0782 9.326H66.1722V19H64.1142V12.21H64.0862L61.7762 19H60.0822L57.7722 12.266H57.7442V19H55.6862V9.326H58.7802ZM70.476 9.326V19H68.278V9.326H70.476ZM74.727 15.318C74.727 16.018 74.881 16.536 75.189 16.872C75.5063 17.208 76.001 17.376 76.673 17.376C77.1583 17.376 77.541 17.306 77.821 17.166C78.1103 17.0167 78.3157 16.7973 78.437 16.508C78.5677 16.2093 78.633 15.8173 78.633 15.332V9.326H80.831V15.374C80.831 16.606 80.4763 17.558 79.767 18.23C79.067 18.8927 78.0357 19.224 76.673 19.224C75.2823 19.224 74.2417 18.8927 73.551 18.23C72.8697 17.5673 72.529 16.6153 72.529 15.374V9.326H74.727V15.318ZM85.9873 9.326L88.1713 15.878H88.1993L90.2853 9.326H93.3793V19H91.3213V12.21H91.2933L88.9833 19H87.2893L84.9793 12.266H84.9513V19H82.8933V9.326H85.9873Z" fill="#0D0E10"/>
<defs>
<linearGradient id="paint0_linear_19_45025" x1="34.8947" y1="28" x2="34.8947" y2="0" gradientUnits="userSpaceOnUse">
<stop stop-color="#A5894E"/>
<stop offset="1" stop-color="#C0A262"/>
</linearGradient>
</defs>
</svg>
