<svg width="28" height="28" viewBox="0 0 28 28" fill="none" xmlns="http://www.w3.org/2000/svg">
<circle cx="14" cy="14" r="14" fill="url(#paint0_linear_19_44961)"/>
<path d="M6.75084 17.9708C6.81048 18.5289 7.08922 19.046 7.53261 19.4212C7.976 19.7964 8.55222 20.0028 9.14873 20H18.8602C19.4567 20.0028 20.0329 19.7964 20.4763 19.4212C20.9197 19.046 21.1984 18.5289 21.2581 17.9708L21.362 16.9937H6.64693L6.75084 17.9708ZM21.7856 10.2297C21.6246 9.95693 21.3772 9.73801 21.0779 9.60334C20.7786 9.46867 20.4421 9.42493 20.1151 9.47818C19.7907 9.53226 19.492 9.67925 19.2598 9.89906L18.5725 10.5379C18.4995 10.6082 18.4126 10.6644 18.3167 10.7032C18.22 10.7392 18.1169 10.757 18.0129 10.7558C17.9072 10.7554 17.8026 10.7353 17.7052 10.6966C17.6077 10.6579 17.5195 10.6014 17.4454 10.5304L15.2234 8.426C14.9249 8.15285 14.5249 8 14.1084 8C13.6919 8 13.2918 8.15285 12.9934 8.426L10.5955 10.6205C10.516 10.6889 10.4226 10.7415 10.3209 10.7751C10.2193 10.8086 10.1115 10.8225 10.004 10.816C9.79429 10.8151 9.59335 10.7368 9.44447 10.598L8.7251 9.9216C8.50259 9.69755 8.21253 9.54283 7.89383 9.47818C7.56442 9.42158 7.22442 9.46367 6.92182 9.59852C6.61922 9.73337 6.36929 9.95416 6.20732 10.2297C6.0454 10.5045 5.97574 10.8189 6.00749 11.1316L6.48707 15.4906H21.5139L21.9934 11.1316C22.0233 10.8181 21.9508 10.5035 21.7856 10.2297Z" fill="#0D0E10"/>
<defs>
<linearGradient id="paint0_linear_19_44961" x1="9.63006" y1="28" x2="9.63006" y2="0" gradientUnits="userSpaceOnUse">
<stop stop-color="#A5894E"/>
<stop offset="1" stop-color="#C0A262"/>
</linearGradient>
</defs>
</svg>
